%TF.GenerationSoftware,KiCad,Pcbnew,5.1.7*%
%TF.CreationDate,2020-11-23T19:31:42+01:00*%
%TF.ProjectId,voltage-blaster,766f6c74-6167-4652-9d62-6c6173746572,1.0*%
%TF.SameCoordinates,Original*%
%TF.FileFunction,Legend,Top*%
%TF.FilePolarity,Positive*%
%FSLAX46Y46*%
G04 Gerber Fmt 4.6, Leading zero omitted, Abs format (unit mm)*
G04 Created by KiCad (PCBNEW 5.1.7) date 2020-11-23 19:31:42*
%MOMM*%
%LPD*%
G01*
G04 APERTURE LIST*
%ADD10C,0.150000*%
%ADD11C,0.200000*%
%ADD12C,0.500000*%
%ADD13C,0.400000*%
%ADD14C,0.120000*%
G04 APERTURE END LIST*
D10*
X72622142Y-62137857D02*
X72622142Y-61337857D01*
X72622142Y-61566428D02*
X72679285Y-61452142D01*
X72736428Y-61395000D01*
X72850714Y-61337857D01*
X72965000Y-61337857D01*
X73822142Y-62080714D02*
X73707857Y-62137857D01*
X73479285Y-62137857D01*
X73365000Y-62080714D01*
X73307857Y-61966428D01*
X73307857Y-61509285D01*
X73365000Y-61395000D01*
X73479285Y-61337857D01*
X73707857Y-61337857D01*
X73822142Y-61395000D01*
X73879285Y-61509285D01*
X73879285Y-61623571D01*
X73307857Y-61737857D01*
X74279285Y-61337857D02*
X74565000Y-62137857D01*
X74850714Y-61337857D01*
X76850714Y-62137857D02*
X76165000Y-62137857D01*
X76507857Y-62137857D02*
X76507857Y-60937857D01*
X76393571Y-61109285D01*
X76279285Y-61223571D01*
X76165000Y-61280714D01*
X77365000Y-62023571D02*
X77422142Y-62080714D01*
X77365000Y-62137857D01*
X77307857Y-62080714D01*
X77365000Y-62023571D01*
X77365000Y-62137857D01*
X78165000Y-60937857D02*
X78279285Y-60937857D01*
X78393571Y-60995000D01*
X78450714Y-61052142D01*
X78507857Y-61166428D01*
X78565000Y-61395000D01*
X78565000Y-61680714D01*
X78507857Y-61909285D01*
X78450714Y-62023571D01*
X78393571Y-62080714D01*
X78279285Y-62137857D01*
X78165000Y-62137857D01*
X78050714Y-62080714D01*
X77993571Y-62023571D01*
X77936428Y-61909285D01*
X77879285Y-61680714D01*
X77879285Y-61395000D01*
X77936428Y-61166428D01*
X77993571Y-61052142D01*
X78050714Y-60995000D01*
X78165000Y-60937857D01*
D11*
X72682142Y-57964285D02*
X72682142Y-56164285D01*
X72682142Y-56850000D02*
X72825000Y-56764285D01*
X73110714Y-56764285D01*
X73253571Y-56850000D01*
X73325000Y-56935714D01*
X73396428Y-57107142D01*
X73396428Y-57621428D01*
X73325000Y-57792857D01*
X73253571Y-57878571D01*
X73110714Y-57964285D01*
X72825000Y-57964285D01*
X72682142Y-57878571D01*
X73896428Y-56764285D02*
X74253571Y-57964285D01*
X74610714Y-56764285D02*
X74253571Y-57964285D01*
X74110714Y-58392857D01*
X74039285Y-58478571D01*
X73896428Y-58564285D01*
X76325000Y-57964285D02*
X76325000Y-56164285D01*
X76896428Y-56164285D01*
X77039285Y-56250000D01*
X77110714Y-56335714D01*
X77182142Y-56507142D01*
X77182142Y-56764285D01*
X77110714Y-56935714D01*
X77039285Y-57021428D01*
X76896428Y-57107142D01*
X76325000Y-57107142D01*
X77825000Y-57964285D02*
X77825000Y-56164285D01*
X78467857Y-57964285D02*
X78467857Y-57021428D01*
X78396428Y-56850000D01*
X78253571Y-56764285D01*
X78039285Y-56764285D01*
X77896428Y-56850000D01*
X77825000Y-56935714D01*
X79182142Y-57964285D02*
X79182142Y-56764285D01*
X79182142Y-56164285D02*
X79110714Y-56250000D01*
X79182142Y-56335714D01*
X79253571Y-56250000D01*
X79182142Y-56164285D01*
X79182142Y-56335714D01*
X80110714Y-57964285D02*
X79967857Y-57878571D01*
X79896428Y-57707142D01*
X79896428Y-56164285D01*
X80610714Y-57878571D02*
X80753571Y-57964285D01*
X81039285Y-57964285D01*
X81182142Y-57878571D01*
X81253571Y-57707142D01*
X81253571Y-57621428D01*
X81182142Y-57450000D01*
X81039285Y-57364285D01*
X80825000Y-57364285D01*
X80682142Y-57278571D01*
X80610714Y-57107142D01*
X80610714Y-57021428D01*
X80682142Y-56850000D01*
X80825000Y-56764285D01*
X81039285Y-56764285D01*
X81182142Y-56850000D01*
X82753571Y-57792857D02*
X82682142Y-57878571D01*
X82467857Y-57964285D01*
X82325000Y-57964285D01*
X82110714Y-57878571D01*
X81967857Y-57707142D01*
X81896428Y-57535714D01*
X81825000Y-57192857D01*
X81825000Y-56935714D01*
X81896428Y-56592857D01*
X81967857Y-56421428D01*
X82110714Y-56250000D01*
X82325000Y-56164285D01*
X82467857Y-56164285D01*
X82682142Y-56250000D01*
X82753571Y-56335714D01*
X83610714Y-57964285D02*
X83467857Y-57878571D01*
X83396428Y-57792857D01*
X83325000Y-57621428D01*
X83325000Y-57107142D01*
X83396428Y-56935714D01*
X83467857Y-56850000D01*
X83610714Y-56764285D01*
X83825000Y-56764285D01*
X83967857Y-56850000D01*
X84039285Y-56935714D01*
X84110714Y-57107142D01*
X84110714Y-57621428D01*
X84039285Y-57792857D01*
X83967857Y-57878571D01*
X83825000Y-57964285D01*
X83610714Y-57964285D01*
X84753571Y-57964285D02*
X84753571Y-56764285D01*
X84753571Y-56935714D02*
X84825000Y-56850000D01*
X84967857Y-56764285D01*
X85182142Y-56764285D01*
X85325000Y-56850000D01*
X85396428Y-57021428D01*
X85396428Y-57964285D01*
X85396428Y-57021428D02*
X85467857Y-56850000D01*
X85610714Y-56764285D01*
X85825000Y-56764285D01*
X85967857Y-56850000D01*
X86039285Y-57021428D01*
X86039285Y-57964285D01*
X86753571Y-56764285D02*
X86753571Y-58564285D01*
X86753571Y-56850000D02*
X86896428Y-56764285D01*
X87182142Y-56764285D01*
X87325000Y-56850000D01*
X87396428Y-56935714D01*
X87467857Y-57107142D01*
X87467857Y-57621428D01*
X87396428Y-57792857D01*
X87325000Y-57878571D01*
X87182142Y-57964285D01*
X86896428Y-57964285D01*
X86753571Y-57878571D01*
X88753571Y-56764285D02*
X88753571Y-57964285D01*
X88110714Y-56764285D02*
X88110714Y-57707142D01*
X88182142Y-57878571D01*
X88325000Y-57964285D01*
X88539285Y-57964285D01*
X88682142Y-57878571D01*
X88753571Y-57792857D01*
X89253571Y-56764285D02*
X89825000Y-56764285D01*
X89467857Y-56164285D02*
X89467857Y-57707142D01*
X89539285Y-57878571D01*
X89682142Y-57964285D01*
X89825000Y-57964285D01*
X90896428Y-57878571D02*
X90753571Y-57964285D01*
X90467857Y-57964285D01*
X90325000Y-57878571D01*
X90253571Y-57707142D01*
X90253571Y-57021428D01*
X90325000Y-56850000D01*
X90467857Y-56764285D01*
X90753571Y-56764285D01*
X90896428Y-56850000D01*
X90967857Y-57021428D01*
X90967857Y-57192857D01*
X90253571Y-57364285D01*
X91610714Y-57964285D02*
X91610714Y-56764285D01*
X91610714Y-57107142D02*
X91682142Y-56935714D01*
X91753571Y-56850000D01*
X91896428Y-56764285D01*
X92039285Y-56764285D01*
X93253571Y-57964285D02*
X92539285Y-57964285D01*
X92539285Y-56164285D01*
X94396428Y-57964285D02*
X94396428Y-57021428D01*
X94325000Y-56850000D01*
X94182142Y-56764285D01*
X93896428Y-56764285D01*
X93753571Y-56850000D01*
X94396428Y-57878571D02*
X94253571Y-57964285D01*
X93896428Y-57964285D01*
X93753571Y-57878571D01*
X93682142Y-57707142D01*
X93682142Y-57535714D01*
X93753571Y-57364285D01*
X93896428Y-57278571D01*
X94253571Y-57278571D01*
X94396428Y-57192857D01*
X95110714Y-57964285D02*
X95110714Y-56164285D01*
X95110714Y-56850000D02*
X95253571Y-56764285D01*
X95539285Y-56764285D01*
X95682142Y-56850000D01*
X95753571Y-56935714D01*
X95825000Y-57107142D01*
X95825000Y-57621428D01*
X95753571Y-57792857D01*
X95682142Y-57878571D01*
X95539285Y-57964285D01*
X95253571Y-57964285D01*
X95110714Y-57878571D01*
X98825000Y-57964285D02*
X98753571Y-57964285D01*
X98610714Y-57878571D01*
X98396428Y-57621428D01*
X98039285Y-57107142D01*
X97896428Y-56850000D01*
X97825000Y-56592857D01*
X97825000Y-56421428D01*
X97896428Y-56250000D01*
X98039285Y-56164285D01*
X98110714Y-56164285D01*
X98253571Y-56250000D01*
X98325000Y-56421428D01*
X98325000Y-56507142D01*
X98253571Y-56678571D01*
X98182142Y-56764285D01*
X97753571Y-57107142D01*
X97682142Y-57192857D01*
X97610714Y-57364285D01*
X97610714Y-57621428D01*
X97682142Y-57792857D01*
X97753571Y-57878571D01*
X97896428Y-57964285D01*
X98110714Y-57964285D01*
X98253571Y-57878571D01*
X98325000Y-57792857D01*
X98539285Y-57450000D01*
X98610714Y-57192857D01*
X98610714Y-57021428D01*
X100610714Y-57964285D02*
X100610714Y-56164285D01*
X101467857Y-57964285D01*
X101467857Y-56164285D01*
X102753571Y-57878571D02*
X102610714Y-57964285D01*
X102325000Y-57964285D01*
X102182142Y-57878571D01*
X102110714Y-57707142D01*
X102110714Y-57021428D01*
X102182142Y-56850000D01*
X102325000Y-56764285D01*
X102610714Y-56764285D01*
X102753571Y-56850000D01*
X102825000Y-57021428D01*
X102825000Y-57192857D01*
X102110714Y-57364285D01*
X104110714Y-57878571D02*
X103967857Y-57964285D01*
X103682142Y-57964285D01*
X103539285Y-57878571D01*
X103467857Y-57792857D01*
X103396428Y-57621428D01*
X103396428Y-57107142D01*
X103467857Y-56935714D01*
X103539285Y-56850000D01*
X103682142Y-56764285D01*
X103967857Y-56764285D01*
X104110714Y-56850000D01*
X104753571Y-57964285D02*
X104753571Y-56764285D01*
X104753571Y-57107142D02*
X104825000Y-56935714D01*
X104896428Y-56850000D01*
X105039285Y-56764285D01*
X105182142Y-56764285D01*
X105896428Y-57964285D02*
X105753571Y-57878571D01*
X105682142Y-57792857D01*
X105610714Y-57621428D01*
X105610714Y-57107142D01*
X105682142Y-56935714D01*
X105753571Y-56850000D01*
X105896428Y-56764285D01*
X106110714Y-56764285D01*
X106253571Y-56850000D01*
X106325000Y-56935714D01*
X106396428Y-57107142D01*
X106396428Y-57621428D01*
X106325000Y-57792857D01*
X106253571Y-57878571D01*
X106110714Y-57964285D01*
X105896428Y-57964285D01*
X106896428Y-56764285D02*
X107182142Y-57964285D01*
X107467857Y-57107142D01*
X107753571Y-57964285D01*
X108039285Y-56764285D01*
X109253571Y-57964285D02*
X109253571Y-57021428D01*
X109182142Y-56850000D01*
X109039285Y-56764285D01*
X108753571Y-56764285D01*
X108610714Y-56850000D01*
X109253571Y-57878571D02*
X109110714Y-57964285D01*
X108753571Y-57964285D01*
X108610714Y-57878571D01*
X108539285Y-57707142D01*
X108539285Y-57535714D01*
X108610714Y-57364285D01*
X108753571Y-57278571D01*
X109110714Y-57278571D01*
X109253571Y-57192857D01*
X109967857Y-57964285D02*
X109967857Y-56764285D01*
X109967857Y-57107142D02*
X110039285Y-56935714D01*
X110110714Y-56850000D01*
X110253571Y-56764285D01*
X110396428Y-56764285D01*
X111467857Y-57878571D02*
X111325000Y-57964285D01*
X111039285Y-57964285D01*
X110896428Y-57878571D01*
X110825000Y-57707142D01*
X110825000Y-57021428D01*
X110896428Y-56850000D01*
X111039285Y-56764285D01*
X111325000Y-56764285D01*
X111467857Y-56850000D01*
X111539285Y-57021428D01*
X111539285Y-57192857D01*
X110825000Y-57364285D01*
D12*
X76146571Y-51443142D02*
X77146571Y-54443142D01*
X78146571Y-51443142D01*
X79575142Y-54443142D02*
X79289428Y-54300285D01*
X79146571Y-54157428D01*
X79003714Y-53871714D01*
X79003714Y-53014571D01*
X79146571Y-52728857D01*
X79289428Y-52586000D01*
X79575142Y-52443142D01*
X80003714Y-52443142D01*
X80289428Y-52586000D01*
X80432285Y-52728857D01*
X80575142Y-53014571D01*
X80575142Y-53871714D01*
X80432285Y-54157428D01*
X80289428Y-54300285D01*
X80003714Y-54443142D01*
X79575142Y-54443142D01*
X82289428Y-54443142D02*
X82003714Y-54300285D01*
X81860857Y-54014571D01*
X81860857Y-51443142D01*
X83003714Y-52443142D02*
X84146571Y-52443142D01*
X83432285Y-51443142D02*
X83432285Y-54014571D01*
X83575142Y-54300285D01*
X83860857Y-54443142D01*
X84146571Y-54443142D01*
X86432285Y-54443142D02*
X86432285Y-52871714D01*
X86289428Y-52586000D01*
X86003714Y-52443142D01*
X85432285Y-52443142D01*
X85146571Y-52586000D01*
X86432285Y-54300285D02*
X86146571Y-54443142D01*
X85432285Y-54443142D01*
X85146571Y-54300285D01*
X85003714Y-54014571D01*
X85003714Y-53728857D01*
X85146571Y-53443142D01*
X85432285Y-53300285D01*
X86146571Y-53300285D01*
X86432285Y-53157428D01*
X89146571Y-52443142D02*
X89146571Y-54871714D01*
X89003714Y-55157428D01*
X88860857Y-55300285D01*
X88575142Y-55443142D01*
X88146571Y-55443142D01*
X87860857Y-55300285D01*
X89146571Y-54300285D02*
X88860857Y-54443142D01*
X88289428Y-54443142D01*
X88003714Y-54300285D01*
X87860857Y-54157428D01*
X87717999Y-53871714D01*
X87717999Y-53014571D01*
X87860857Y-52728857D01*
X88003714Y-52586000D01*
X88289428Y-52443142D01*
X88860857Y-52443142D01*
X89146571Y-52586000D01*
X91718000Y-54300285D02*
X91432285Y-54443142D01*
X90860857Y-54443142D01*
X90575142Y-54300285D01*
X90432285Y-54014571D01*
X90432285Y-52871714D01*
X90575142Y-52586000D01*
X90860857Y-52443142D01*
X91432285Y-52443142D01*
X91718000Y-52586000D01*
X91860857Y-52871714D01*
X91860857Y-53157428D01*
X90432285Y-53443142D01*
X96432285Y-52871714D02*
X96860857Y-53014571D01*
X97003714Y-53157428D01*
X97146571Y-53443142D01*
X97146571Y-53871714D01*
X97003714Y-54157428D01*
X96860857Y-54300285D01*
X96575142Y-54443142D01*
X95432285Y-54443142D01*
X95432285Y-51443142D01*
X96432285Y-51443142D01*
X96718000Y-51586000D01*
X96860857Y-51728857D01*
X97003714Y-52014571D01*
X97003714Y-52300285D01*
X96860857Y-52586000D01*
X96718000Y-52728857D01*
X96432285Y-52871714D01*
X95432285Y-52871714D01*
X98860857Y-54443142D02*
X98575142Y-54300285D01*
X98432285Y-54014571D01*
X98432285Y-51443142D01*
X101289428Y-54443142D02*
X101289428Y-52871714D01*
X101146571Y-52586000D01*
X100860857Y-52443142D01*
X100289428Y-52443142D01*
X100003714Y-52586000D01*
X101289428Y-54300285D02*
X101003714Y-54443142D01*
X100289428Y-54443142D01*
X100003714Y-54300285D01*
X99860857Y-54014571D01*
X99860857Y-53728857D01*
X100003714Y-53443142D01*
X100289428Y-53300285D01*
X101003714Y-53300285D01*
X101289428Y-53157428D01*
X102575142Y-54300285D02*
X102860857Y-54443142D01*
X103432285Y-54443142D01*
X103717999Y-54300285D01*
X103860857Y-54014571D01*
X103860857Y-53871714D01*
X103717999Y-53586000D01*
X103432285Y-53443142D01*
X103003714Y-53443142D01*
X102717999Y-53300285D01*
X102575142Y-53014571D01*
X102575142Y-52871714D01*
X102717999Y-52586000D01*
X103003714Y-52443142D01*
X103432285Y-52443142D01*
X103717999Y-52586000D01*
X104718000Y-52443142D02*
X105860857Y-52443142D01*
X105146571Y-51443142D02*
X105146571Y-54014571D01*
X105289428Y-54300285D01*
X105575142Y-54443142D01*
X105860857Y-54443142D01*
X108003714Y-54300285D02*
X107717999Y-54443142D01*
X107146571Y-54443142D01*
X106860857Y-54300285D01*
X106717999Y-54014571D01*
X106717999Y-52871714D01*
X106860857Y-52586000D01*
X107146571Y-52443142D01*
X107717999Y-52443142D01*
X108003714Y-52586000D01*
X108146571Y-52871714D01*
X108146571Y-53157428D01*
X106717999Y-53443142D01*
X109432285Y-54443142D02*
X109432285Y-52443142D01*
X109432285Y-53014571D02*
X109575142Y-52728857D01*
X109717999Y-52586000D01*
X110003714Y-52443142D01*
X110289428Y-52443142D01*
D10*
X157130714Y-62682380D02*
X156559285Y-62682380D01*
X156845000Y-62682380D02*
X156845000Y-61682380D01*
X156749761Y-61825238D01*
X156654523Y-61920476D01*
X156559285Y-61968095D01*
D13*
X152768190Y-57400523D02*
X152768190Y-55500523D01*
X153492000Y-55500523D01*
X153672952Y-55591000D01*
X153763428Y-55681476D01*
X153853904Y-55862428D01*
X153853904Y-56133857D01*
X153763428Y-56314809D01*
X153672952Y-56405285D01*
X153492000Y-56495761D01*
X152768190Y-56495761D01*
X155753904Y-57219571D02*
X155663428Y-57310047D01*
X155392000Y-57400523D01*
X155211047Y-57400523D01*
X154939619Y-57310047D01*
X154758666Y-57129095D01*
X154668190Y-56948142D01*
X154577714Y-56586238D01*
X154577714Y-56314809D01*
X154668190Y-55952904D01*
X154758666Y-55771952D01*
X154939619Y-55591000D01*
X155211047Y-55500523D01*
X155392000Y-55500523D01*
X155663428Y-55591000D01*
X155753904Y-55681476D01*
X158015809Y-57400523D02*
X158015809Y-55500523D01*
X158015809Y-56224333D02*
X158196761Y-56133857D01*
X158558666Y-56133857D01*
X158739619Y-56224333D01*
X158830095Y-56314809D01*
X158920571Y-56495761D01*
X158920571Y-57038619D01*
X158830095Y-57219571D01*
X158739619Y-57310047D01*
X158558666Y-57400523D01*
X158196761Y-57400523D01*
X158015809Y-57310047D01*
X160549142Y-57400523D02*
X160549142Y-56405285D01*
X160458666Y-56224333D01*
X160277714Y-56133857D01*
X159915809Y-56133857D01*
X159734857Y-56224333D01*
X160549142Y-57310047D02*
X160368190Y-57400523D01*
X159915809Y-57400523D01*
X159734857Y-57310047D01*
X159644380Y-57129095D01*
X159644380Y-56948142D01*
X159734857Y-56767190D01*
X159915809Y-56676714D01*
X160368190Y-56676714D01*
X160549142Y-56586238D01*
X162268190Y-57310047D02*
X162087238Y-57400523D01*
X161725333Y-57400523D01*
X161544380Y-57310047D01*
X161453904Y-57219571D01*
X161363428Y-57038619D01*
X161363428Y-56495761D01*
X161453904Y-56314809D01*
X161544380Y-56224333D01*
X161725333Y-56133857D01*
X162087238Y-56133857D01*
X162268190Y-56224333D01*
X163082476Y-57400523D02*
X163082476Y-55500523D01*
X163263428Y-56676714D02*
X163806285Y-57400523D01*
X163806285Y-56133857D02*
X163082476Y-56857666D01*
X151637238Y-59926714D02*
X153084857Y-59926714D01*
X153989619Y-59926714D02*
X155437238Y-59926714D01*
X156342000Y-59926714D02*
X157789619Y-59926714D01*
X158694380Y-59926714D02*
X160142000Y-59926714D01*
X161046761Y-59926714D02*
X162494380Y-59926714D01*
X163399142Y-59383857D02*
X164846761Y-59926714D01*
X163399142Y-60469571D01*
D14*
%TO.C,U1*%
X129660000Y-60365000D02*
X129660000Y-50125000D01*
X113770000Y-60365000D02*
X113770000Y-50125000D01*
X113770000Y-60365000D02*
X129660000Y-60365000D01*
X113770000Y-50125000D02*
X129660000Y-50125000D01*
X129660000Y-57785000D02*
X132200000Y-57785000D01*
X129660000Y-55245000D02*
X132200000Y-55245000D01*
X129660000Y-52705000D02*
X132200000Y-52705000D01*
%TO.C,C2*%
X142935000Y-59055000D02*
G75*
G03*
X142935000Y-59055000I-2620000J0D01*
G01*
X140315000Y-56475000D02*
X140315000Y-61635000D01*
X140355000Y-56475000D02*
X140355000Y-61635000D01*
X140395000Y-56476000D02*
X140395000Y-61634000D01*
X140435000Y-56477000D02*
X140435000Y-61633000D01*
X140475000Y-56479000D02*
X140475000Y-61631000D01*
X140515000Y-56482000D02*
X140515000Y-61628000D01*
X140555000Y-56486000D02*
X140555000Y-58015000D01*
X140555000Y-60095000D02*
X140555000Y-61624000D01*
X140595000Y-56490000D02*
X140595000Y-58015000D01*
X140595000Y-60095000D02*
X140595000Y-61620000D01*
X140635000Y-56494000D02*
X140635000Y-58015000D01*
X140635000Y-60095000D02*
X140635000Y-61616000D01*
X140675000Y-56499000D02*
X140675000Y-58015000D01*
X140675000Y-60095000D02*
X140675000Y-61611000D01*
X140715000Y-56505000D02*
X140715000Y-58015000D01*
X140715000Y-60095000D02*
X140715000Y-61605000D01*
X140755000Y-56512000D02*
X140755000Y-58015000D01*
X140755000Y-60095000D02*
X140755000Y-61598000D01*
X140795000Y-56519000D02*
X140795000Y-58015000D01*
X140795000Y-60095000D02*
X140795000Y-61591000D01*
X140835000Y-56527000D02*
X140835000Y-58015000D01*
X140835000Y-60095000D02*
X140835000Y-61583000D01*
X140875000Y-56535000D02*
X140875000Y-58015000D01*
X140875000Y-60095000D02*
X140875000Y-61575000D01*
X140915000Y-56544000D02*
X140915000Y-58015000D01*
X140915000Y-60095000D02*
X140915000Y-61566000D01*
X140955000Y-56554000D02*
X140955000Y-58015000D01*
X140955000Y-60095000D02*
X140955000Y-61556000D01*
X140995000Y-56564000D02*
X140995000Y-58015000D01*
X140995000Y-60095000D02*
X140995000Y-61546000D01*
X141036000Y-56575000D02*
X141036000Y-58015000D01*
X141036000Y-60095000D02*
X141036000Y-61535000D01*
X141076000Y-56587000D02*
X141076000Y-58015000D01*
X141076000Y-60095000D02*
X141076000Y-61523000D01*
X141116000Y-56600000D02*
X141116000Y-58015000D01*
X141116000Y-60095000D02*
X141116000Y-61510000D01*
X141156000Y-56613000D02*
X141156000Y-58015000D01*
X141156000Y-60095000D02*
X141156000Y-61497000D01*
X141196000Y-56627000D02*
X141196000Y-58015000D01*
X141196000Y-60095000D02*
X141196000Y-61483000D01*
X141236000Y-56641000D02*
X141236000Y-58015000D01*
X141236000Y-60095000D02*
X141236000Y-61469000D01*
X141276000Y-56657000D02*
X141276000Y-58015000D01*
X141276000Y-60095000D02*
X141276000Y-61453000D01*
X141316000Y-56673000D02*
X141316000Y-58015000D01*
X141316000Y-60095000D02*
X141316000Y-61437000D01*
X141356000Y-56690000D02*
X141356000Y-58015000D01*
X141356000Y-60095000D02*
X141356000Y-61420000D01*
X141396000Y-56707000D02*
X141396000Y-58015000D01*
X141396000Y-60095000D02*
X141396000Y-61403000D01*
X141436000Y-56726000D02*
X141436000Y-58015000D01*
X141436000Y-60095000D02*
X141436000Y-61384000D01*
X141476000Y-56745000D02*
X141476000Y-58015000D01*
X141476000Y-60095000D02*
X141476000Y-61365000D01*
X141516000Y-56765000D02*
X141516000Y-58015000D01*
X141516000Y-60095000D02*
X141516000Y-61345000D01*
X141556000Y-56787000D02*
X141556000Y-58015000D01*
X141556000Y-60095000D02*
X141556000Y-61323000D01*
X141596000Y-56808000D02*
X141596000Y-58015000D01*
X141596000Y-60095000D02*
X141596000Y-61302000D01*
X141636000Y-56831000D02*
X141636000Y-58015000D01*
X141636000Y-60095000D02*
X141636000Y-61279000D01*
X141676000Y-56855000D02*
X141676000Y-58015000D01*
X141676000Y-60095000D02*
X141676000Y-61255000D01*
X141716000Y-56880000D02*
X141716000Y-58015000D01*
X141716000Y-60095000D02*
X141716000Y-61230000D01*
X141756000Y-56906000D02*
X141756000Y-58015000D01*
X141756000Y-60095000D02*
X141756000Y-61204000D01*
X141796000Y-56933000D02*
X141796000Y-58015000D01*
X141796000Y-60095000D02*
X141796000Y-61177000D01*
X141836000Y-56960000D02*
X141836000Y-58015000D01*
X141836000Y-60095000D02*
X141836000Y-61150000D01*
X141876000Y-56990000D02*
X141876000Y-58015000D01*
X141876000Y-60095000D02*
X141876000Y-61120000D01*
X141916000Y-57020000D02*
X141916000Y-58015000D01*
X141916000Y-60095000D02*
X141916000Y-61090000D01*
X141956000Y-57051000D02*
X141956000Y-58015000D01*
X141956000Y-60095000D02*
X141956000Y-61059000D01*
X141996000Y-57084000D02*
X141996000Y-58015000D01*
X141996000Y-60095000D02*
X141996000Y-61026000D01*
X142036000Y-57118000D02*
X142036000Y-58015000D01*
X142036000Y-60095000D02*
X142036000Y-60992000D01*
X142076000Y-57154000D02*
X142076000Y-58015000D01*
X142076000Y-60095000D02*
X142076000Y-60956000D01*
X142116000Y-57191000D02*
X142116000Y-58015000D01*
X142116000Y-60095000D02*
X142116000Y-60919000D01*
X142156000Y-57229000D02*
X142156000Y-58015000D01*
X142156000Y-60095000D02*
X142156000Y-60881000D01*
X142196000Y-57270000D02*
X142196000Y-58015000D01*
X142196000Y-60095000D02*
X142196000Y-60840000D01*
X142236000Y-57312000D02*
X142236000Y-58015000D01*
X142236000Y-60095000D02*
X142236000Y-60798000D01*
X142276000Y-57356000D02*
X142276000Y-58015000D01*
X142276000Y-60095000D02*
X142276000Y-60754000D01*
X142316000Y-57402000D02*
X142316000Y-58015000D01*
X142316000Y-60095000D02*
X142316000Y-60708000D01*
X142356000Y-57450000D02*
X142356000Y-58015000D01*
X142356000Y-60095000D02*
X142356000Y-60660000D01*
X142396000Y-57501000D02*
X142396000Y-58015000D01*
X142396000Y-60095000D02*
X142396000Y-60609000D01*
X142436000Y-57555000D02*
X142436000Y-58015000D01*
X142436000Y-60095000D02*
X142436000Y-60555000D01*
X142476000Y-57612000D02*
X142476000Y-58015000D01*
X142476000Y-60095000D02*
X142476000Y-60498000D01*
X142516000Y-57672000D02*
X142516000Y-58015000D01*
X142516000Y-60095000D02*
X142516000Y-60438000D01*
X142556000Y-57736000D02*
X142556000Y-58015000D01*
X142556000Y-60095000D02*
X142556000Y-60374000D01*
X142596000Y-57804000D02*
X142596000Y-58015000D01*
X142596000Y-60095000D02*
X142596000Y-60306000D01*
X142636000Y-57877000D02*
X142636000Y-60233000D01*
X142676000Y-57957000D02*
X142676000Y-60153000D01*
X142716000Y-58044000D02*
X142716000Y-60066000D01*
X142756000Y-58140000D02*
X142756000Y-59970000D01*
X142796000Y-58250000D02*
X142796000Y-59860000D01*
X142836000Y-58378000D02*
X142836000Y-59732000D01*
X142876000Y-58537000D02*
X142876000Y-59573000D01*
X142916000Y-58771000D02*
X142916000Y-59339000D01*
X137510225Y-57580000D02*
X138010225Y-57580000D01*
X137760225Y-57330000D02*
X137760225Y-57830000D01*
%TO.C,C1*%
X142955000Y-51415000D02*
G75*
G03*
X142955000Y-51415000I-2620000J0D01*
G01*
X142915000Y-51415000D02*
X137755000Y-51415000D01*
X142915000Y-51455000D02*
X137755000Y-51455000D01*
X142914000Y-51495000D02*
X137756000Y-51495000D01*
X142913000Y-51535000D02*
X137757000Y-51535000D01*
X142911000Y-51575000D02*
X137759000Y-51575000D01*
X142908000Y-51615000D02*
X137762000Y-51615000D01*
X142904000Y-51655000D02*
X141375000Y-51655000D01*
X139295000Y-51655000D02*
X137766000Y-51655000D01*
X142900000Y-51695000D02*
X141375000Y-51695000D01*
X139295000Y-51695000D02*
X137770000Y-51695000D01*
X142896000Y-51735000D02*
X141375000Y-51735000D01*
X139295000Y-51735000D02*
X137774000Y-51735000D01*
X142891000Y-51775000D02*
X141375000Y-51775000D01*
X139295000Y-51775000D02*
X137779000Y-51775000D01*
X142885000Y-51815000D02*
X141375000Y-51815000D01*
X139295000Y-51815000D02*
X137785000Y-51815000D01*
X142878000Y-51855000D02*
X141375000Y-51855000D01*
X139295000Y-51855000D02*
X137792000Y-51855000D01*
X142871000Y-51895000D02*
X141375000Y-51895000D01*
X139295000Y-51895000D02*
X137799000Y-51895000D01*
X142863000Y-51935000D02*
X141375000Y-51935000D01*
X139295000Y-51935000D02*
X137807000Y-51935000D01*
X142855000Y-51975000D02*
X141375000Y-51975000D01*
X139295000Y-51975000D02*
X137815000Y-51975000D01*
X142846000Y-52015000D02*
X141375000Y-52015000D01*
X139295000Y-52015000D02*
X137824000Y-52015000D01*
X142836000Y-52055000D02*
X141375000Y-52055000D01*
X139295000Y-52055000D02*
X137834000Y-52055000D01*
X142826000Y-52095000D02*
X141375000Y-52095000D01*
X139295000Y-52095000D02*
X137844000Y-52095000D01*
X142815000Y-52136000D02*
X141375000Y-52136000D01*
X139295000Y-52136000D02*
X137855000Y-52136000D01*
X142803000Y-52176000D02*
X141375000Y-52176000D01*
X139295000Y-52176000D02*
X137867000Y-52176000D01*
X142790000Y-52216000D02*
X141375000Y-52216000D01*
X139295000Y-52216000D02*
X137880000Y-52216000D01*
X142777000Y-52256000D02*
X141375000Y-52256000D01*
X139295000Y-52256000D02*
X137893000Y-52256000D01*
X142763000Y-52296000D02*
X141375000Y-52296000D01*
X139295000Y-52296000D02*
X137907000Y-52296000D01*
X142749000Y-52336000D02*
X141375000Y-52336000D01*
X139295000Y-52336000D02*
X137921000Y-52336000D01*
X142733000Y-52376000D02*
X141375000Y-52376000D01*
X139295000Y-52376000D02*
X137937000Y-52376000D01*
X142717000Y-52416000D02*
X141375000Y-52416000D01*
X139295000Y-52416000D02*
X137953000Y-52416000D01*
X142700000Y-52456000D02*
X141375000Y-52456000D01*
X139295000Y-52456000D02*
X137970000Y-52456000D01*
X142683000Y-52496000D02*
X141375000Y-52496000D01*
X139295000Y-52496000D02*
X137987000Y-52496000D01*
X142664000Y-52536000D02*
X141375000Y-52536000D01*
X139295000Y-52536000D02*
X138006000Y-52536000D01*
X142645000Y-52576000D02*
X141375000Y-52576000D01*
X139295000Y-52576000D02*
X138025000Y-52576000D01*
X142625000Y-52616000D02*
X141375000Y-52616000D01*
X139295000Y-52616000D02*
X138045000Y-52616000D01*
X142603000Y-52656000D02*
X141375000Y-52656000D01*
X139295000Y-52656000D02*
X138067000Y-52656000D01*
X142582000Y-52696000D02*
X141375000Y-52696000D01*
X139295000Y-52696000D02*
X138088000Y-52696000D01*
X142559000Y-52736000D02*
X141375000Y-52736000D01*
X139295000Y-52736000D02*
X138111000Y-52736000D01*
X142535000Y-52776000D02*
X141375000Y-52776000D01*
X139295000Y-52776000D02*
X138135000Y-52776000D01*
X142510000Y-52816000D02*
X141375000Y-52816000D01*
X139295000Y-52816000D02*
X138160000Y-52816000D01*
X142484000Y-52856000D02*
X141375000Y-52856000D01*
X139295000Y-52856000D02*
X138186000Y-52856000D01*
X142457000Y-52896000D02*
X141375000Y-52896000D01*
X139295000Y-52896000D02*
X138213000Y-52896000D01*
X142430000Y-52936000D02*
X141375000Y-52936000D01*
X139295000Y-52936000D02*
X138240000Y-52936000D01*
X142400000Y-52976000D02*
X141375000Y-52976000D01*
X139295000Y-52976000D02*
X138270000Y-52976000D01*
X142370000Y-53016000D02*
X141375000Y-53016000D01*
X139295000Y-53016000D02*
X138300000Y-53016000D01*
X142339000Y-53056000D02*
X141375000Y-53056000D01*
X139295000Y-53056000D02*
X138331000Y-53056000D01*
X142306000Y-53096000D02*
X141375000Y-53096000D01*
X139295000Y-53096000D02*
X138364000Y-53096000D01*
X142272000Y-53136000D02*
X141375000Y-53136000D01*
X139295000Y-53136000D02*
X138398000Y-53136000D01*
X142236000Y-53176000D02*
X141375000Y-53176000D01*
X139295000Y-53176000D02*
X138434000Y-53176000D01*
X142199000Y-53216000D02*
X141375000Y-53216000D01*
X139295000Y-53216000D02*
X138471000Y-53216000D01*
X142161000Y-53256000D02*
X141375000Y-53256000D01*
X139295000Y-53256000D02*
X138509000Y-53256000D01*
X142120000Y-53296000D02*
X141375000Y-53296000D01*
X139295000Y-53296000D02*
X138550000Y-53296000D01*
X142078000Y-53336000D02*
X141375000Y-53336000D01*
X139295000Y-53336000D02*
X138592000Y-53336000D01*
X142034000Y-53376000D02*
X141375000Y-53376000D01*
X139295000Y-53376000D02*
X138636000Y-53376000D01*
X141988000Y-53416000D02*
X141375000Y-53416000D01*
X139295000Y-53416000D02*
X138682000Y-53416000D01*
X141940000Y-53456000D02*
X141375000Y-53456000D01*
X139295000Y-53456000D02*
X138730000Y-53456000D01*
X141889000Y-53496000D02*
X141375000Y-53496000D01*
X139295000Y-53496000D02*
X138781000Y-53496000D01*
X141835000Y-53536000D02*
X141375000Y-53536000D01*
X139295000Y-53536000D02*
X138835000Y-53536000D01*
X141778000Y-53576000D02*
X141375000Y-53576000D01*
X139295000Y-53576000D02*
X138892000Y-53576000D01*
X141718000Y-53616000D02*
X141375000Y-53616000D01*
X139295000Y-53616000D02*
X138952000Y-53616000D01*
X141654000Y-53656000D02*
X141375000Y-53656000D01*
X139295000Y-53656000D02*
X139016000Y-53656000D01*
X141586000Y-53696000D02*
X141375000Y-53696000D01*
X139295000Y-53696000D02*
X139084000Y-53696000D01*
X141513000Y-53736000D02*
X139157000Y-53736000D01*
X141433000Y-53776000D02*
X139237000Y-53776000D01*
X141346000Y-53816000D02*
X139324000Y-53816000D01*
X141250000Y-53856000D02*
X139420000Y-53856000D01*
X141140000Y-53896000D02*
X139530000Y-53896000D01*
X141012000Y-53936000D02*
X139658000Y-53936000D01*
X140853000Y-53976000D02*
X139817000Y-53976000D01*
X140619000Y-54016000D02*
X140051000Y-54016000D01*
X141810000Y-48610225D02*
X141810000Y-49110225D01*
X142060000Y-48860225D02*
X141560000Y-48860225D01*
%TO.C,R1*%
X145772000Y-58388000D02*
X145442000Y-58388000D01*
X145442000Y-58388000D02*
X145442000Y-51848000D01*
X145442000Y-51848000D02*
X145772000Y-51848000D01*
X147852000Y-58388000D02*
X148182000Y-58388000D01*
X148182000Y-58388000D02*
X148182000Y-51848000D01*
X148182000Y-51848000D02*
X147852000Y-51848000D01*
%TO.C,D1*%
X155662000Y-51308000D02*
G75*
G03*
X155662000Y-51308000I-2500000J0D01*
G01*
X150602000Y-49763000D02*
X150602000Y-52853000D01*
X156152000Y-51307538D02*
G75*
G02*
X150602000Y-52852830I-2990000J-462D01*
G01*
X156152000Y-51308462D02*
G75*
G03*
X150602000Y-49763170I-2990000J462D01*
G01*
%TO.C,U1*%
D10*
X121294320Y-61206071D02*
X121294320Y-62015595D01*
X121341939Y-62110833D01*
X121389558Y-62158452D01*
X121484796Y-62206071D01*
X121675272Y-62206071D01*
X121770510Y-62158452D01*
X121818129Y-62110833D01*
X121865748Y-62015595D01*
X121865748Y-61206071D01*
X122865748Y-62206071D02*
X122294320Y-62206071D01*
X122580034Y-62206071D02*
X122580034Y-61206071D01*
X122484796Y-61348929D01*
X122389558Y-61444167D01*
X122294320Y-61491786D01*
X129230380Y-57792666D02*
X129230380Y-58268857D01*
X128230380Y-58268857D01*
X129230380Y-57459333D02*
X128230380Y-57459333D01*
X128944666Y-57126000D01*
X128230380Y-56792666D01*
X129230380Y-56792666D01*
X128230380Y-56411714D02*
X128230380Y-55745047D01*
X129230380Y-56173619D01*
X129230380Y-55316476D02*
X129230380Y-55126000D01*
X129182761Y-55030761D01*
X129135142Y-54983142D01*
X128992285Y-54887904D01*
X128801809Y-54840285D01*
X128420857Y-54840285D01*
X128325619Y-54887904D01*
X128278000Y-54935523D01*
X128230380Y-55030761D01*
X128230380Y-55221238D01*
X128278000Y-55316476D01*
X128325619Y-55364095D01*
X128420857Y-55411714D01*
X128658952Y-55411714D01*
X128754190Y-55364095D01*
X128801809Y-55316476D01*
X128849428Y-55221238D01*
X128849428Y-55030761D01*
X128801809Y-54935523D01*
X128754190Y-54887904D01*
X128658952Y-54840285D01*
X128230380Y-54221238D02*
X128230380Y-54126000D01*
X128278000Y-54030761D01*
X128325619Y-53983142D01*
X128420857Y-53935523D01*
X128611333Y-53887904D01*
X128849428Y-53887904D01*
X129039904Y-53935523D01*
X129135142Y-53983142D01*
X129182761Y-54030761D01*
X129230380Y-54126000D01*
X129230380Y-54221238D01*
X129182761Y-54316476D01*
X129135142Y-54364095D01*
X129039904Y-54411714D01*
X128849428Y-54459333D01*
X128611333Y-54459333D01*
X128420857Y-54411714D01*
X128325619Y-54364095D01*
X128278000Y-54316476D01*
X128230380Y-54221238D01*
X128230380Y-52983142D02*
X128230380Y-53459333D01*
X128706571Y-53506952D01*
X128658952Y-53459333D01*
X128611333Y-53364095D01*
X128611333Y-53126000D01*
X128658952Y-53030761D01*
X128706571Y-52983142D01*
X128801809Y-52935523D01*
X129039904Y-52935523D01*
X129135142Y-52983142D01*
X129182761Y-53030761D01*
X129230380Y-53126000D01*
X129230380Y-53364095D01*
X129182761Y-53459333D01*
X129135142Y-53506952D01*
%TO.C,C2*%
X136993333Y-56872142D02*
X136945714Y-56919761D01*
X136802857Y-56967380D01*
X136707619Y-56967380D01*
X136564761Y-56919761D01*
X136469523Y-56824523D01*
X136421904Y-56729285D01*
X136374285Y-56538809D01*
X136374285Y-56395952D01*
X136421904Y-56205476D01*
X136469523Y-56110238D01*
X136564761Y-56015000D01*
X136707619Y-55967380D01*
X136802857Y-55967380D01*
X136945714Y-56015000D01*
X136993333Y-56062619D01*
X137374285Y-56062619D02*
X137421904Y-56015000D01*
X137517142Y-55967380D01*
X137755238Y-55967380D01*
X137850476Y-56015000D01*
X137898095Y-56062619D01*
X137945714Y-56157857D01*
X137945714Y-56253095D01*
X137898095Y-56395952D01*
X137326666Y-56967380D01*
X137945714Y-56967380D01*
X135898095Y-61047380D02*
X136517142Y-61047380D01*
X136183809Y-61428333D01*
X136326666Y-61428333D01*
X136421904Y-61475952D01*
X136469523Y-61523571D01*
X136517142Y-61618809D01*
X136517142Y-61856904D01*
X136469523Y-61952142D01*
X136421904Y-61999761D01*
X136326666Y-62047380D01*
X136040952Y-62047380D01*
X135945714Y-61999761D01*
X135898095Y-61952142D01*
X136850476Y-61047380D02*
X137469523Y-61047380D01*
X137136190Y-61428333D01*
X137279047Y-61428333D01*
X137374285Y-61475952D01*
X137421904Y-61523571D01*
X137469523Y-61618809D01*
X137469523Y-61856904D01*
X137421904Y-61952142D01*
X137374285Y-61999761D01*
X137279047Y-62047380D01*
X136993333Y-62047380D01*
X136898095Y-61999761D01*
X136850476Y-61952142D01*
X138326666Y-61380714D02*
X138326666Y-62047380D01*
X137898095Y-61380714D02*
X137898095Y-61904523D01*
X137945714Y-61999761D01*
X138040952Y-62047380D01*
X138183809Y-62047380D01*
X138279047Y-61999761D01*
X138326666Y-61952142D01*
%TO.C,C1*%
X136993333Y-49252142D02*
X136945714Y-49299761D01*
X136802857Y-49347380D01*
X136707619Y-49347380D01*
X136564761Y-49299761D01*
X136469523Y-49204523D01*
X136421904Y-49109285D01*
X136374285Y-48918809D01*
X136374285Y-48775952D01*
X136421904Y-48585476D01*
X136469523Y-48490238D01*
X136564761Y-48395000D01*
X136707619Y-48347380D01*
X136802857Y-48347380D01*
X136945714Y-48395000D01*
X136993333Y-48442619D01*
X137945714Y-49347380D02*
X137374285Y-49347380D01*
X137660000Y-49347380D02*
X137660000Y-48347380D01*
X137564761Y-48490238D01*
X137469523Y-48585476D01*
X137374285Y-48633095D01*
X135898095Y-53427380D02*
X136517142Y-53427380D01*
X136183809Y-53808333D01*
X136326666Y-53808333D01*
X136421904Y-53855952D01*
X136469523Y-53903571D01*
X136517142Y-53998809D01*
X136517142Y-54236904D01*
X136469523Y-54332142D01*
X136421904Y-54379761D01*
X136326666Y-54427380D01*
X136040952Y-54427380D01*
X135945714Y-54379761D01*
X135898095Y-54332142D01*
X136850476Y-53427380D02*
X137469523Y-53427380D01*
X137136190Y-53808333D01*
X137279047Y-53808333D01*
X137374285Y-53855952D01*
X137421904Y-53903571D01*
X137469523Y-53998809D01*
X137469523Y-54236904D01*
X137421904Y-54332142D01*
X137374285Y-54379761D01*
X137279047Y-54427380D01*
X136993333Y-54427380D01*
X136898095Y-54379761D01*
X136850476Y-54332142D01*
X138326666Y-53760714D02*
X138326666Y-54427380D01*
X137898095Y-53760714D02*
X137898095Y-54284523D01*
X137945714Y-54379761D01*
X138040952Y-54427380D01*
X138183809Y-54427380D01*
X138279047Y-54379761D01*
X138326666Y-54332142D01*
%TO.C,R1*%
X144894380Y-55284666D02*
X144418190Y-55618000D01*
X144894380Y-55856095D02*
X143894380Y-55856095D01*
X143894380Y-55475142D01*
X143942000Y-55379904D01*
X143989619Y-55332285D01*
X144084857Y-55284666D01*
X144227714Y-55284666D01*
X144322952Y-55332285D01*
X144370571Y-55379904D01*
X144418190Y-55475142D01*
X144418190Y-55856095D01*
X144894380Y-54332285D02*
X144894380Y-54903714D01*
X144894380Y-54618000D02*
X143894380Y-54618000D01*
X144037238Y-54713238D01*
X144132476Y-54808476D01*
X144180095Y-54903714D01*
X146264380Y-56403714D02*
X146264380Y-55784666D01*
X146645333Y-56118000D01*
X146645333Y-55975142D01*
X146692952Y-55879904D01*
X146740571Y-55832285D01*
X146835809Y-55784666D01*
X147073904Y-55784666D01*
X147169142Y-55832285D01*
X147216761Y-55879904D01*
X147264380Y-55975142D01*
X147264380Y-56260857D01*
X147216761Y-56356095D01*
X147169142Y-56403714D01*
X146264380Y-55451333D02*
X146264380Y-54832285D01*
X146645333Y-55165619D01*
X146645333Y-55022761D01*
X146692952Y-54927523D01*
X146740571Y-54879904D01*
X146835809Y-54832285D01*
X147073904Y-54832285D01*
X147169142Y-54879904D01*
X147216761Y-54927523D01*
X147264380Y-55022761D01*
X147264380Y-55308476D01*
X147216761Y-55403714D01*
X147169142Y-55451333D01*
X146264380Y-54213238D02*
X146264380Y-54118000D01*
X146312000Y-54022761D01*
X146359619Y-53975142D01*
X146454857Y-53927523D01*
X146645333Y-53879904D01*
X146883428Y-53879904D01*
X147073904Y-53927523D01*
X147169142Y-53975142D01*
X147216761Y-54022761D01*
X147264380Y-54118000D01*
X147264380Y-54213238D01*
X147216761Y-54308476D01*
X147169142Y-54356095D01*
X147073904Y-54403714D01*
X146883428Y-54451333D01*
X146645333Y-54451333D01*
X146454857Y-54403714D01*
X146359619Y-54356095D01*
X146312000Y-54308476D01*
X146264380Y-54213238D01*
%TO.C,D1*%
X156868904Y-51760380D02*
X156868904Y-50760380D01*
X157107000Y-50760380D01*
X157249857Y-50808000D01*
X157345095Y-50903238D01*
X157392714Y-50998476D01*
X157440333Y-51188952D01*
X157440333Y-51331809D01*
X157392714Y-51522285D01*
X157345095Y-51617523D01*
X157249857Y-51712761D01*
X157107000Y-51760380D01*
X156868904Y-51760380D01*
X158392714Y-51760380D02*
X157821285Y-51760380D01*
X158107000Y-51760380D02*
X158107000Y-50760380D01*
X158011761Y-50903238D01*
X157916523Y-50998476D01*
X157821285Y-51046095D01*
X148066285Y-48839428D02*
X148828190Y-48839428D01*
X149780571Y-48220380D02*
X149304380Y-48220380D01*
X149256761Y-48696571D01*
X149304380Y-48648952D01*
X149399619Y-48601333D01*
X149637714Y-48601333D01*
X149732952Y-48648952D01*
X149780571Y-48696571D01*
X149828190Y-48791809D01*
X149828190Y-49029904D01*
X149780571Y-49125142D01*
X149732952Y-49172761D01*
X149637714Y-49220380D01*
X149399619Y-49220380D01*
X149304380Y-49172761D01*
X149256761Y-49125142D01*
X150113904Y-48220380D02*
X150447238Y-49220380D01*
X150780571Y-48220380D01*
%TD*%
M02*
